<svg width="21" height="20" viewBox="0 0 21 20" fill="none" xmlns="http://www.w3.org/2000/svg">
<path d="M19.1504 1.84961C16.6842 -0.616538 12.6715 -0.616538 10.2052 1.84961L1.45083 10.604C-0.483714 12.5386 -0.483509 15.6693 1.45083 17.6037C3.38075 19.5335 6.52074 19.5335 8.45053 17.6037L17.205 8.84923C18.5984 7.45581 18.5984 5.18842 17.205 3.79495C15.8115 2.40148 13.5442 2.40148 12.1507 3.79495L4.68414 11.2616C4.36287 11.5829 4.36287 12.1037 4.68414 12.425C5.00542 12.7463 5.52624 12.7463 5.84755 12.425L13.3141 4.95844C14.066 4.20638 15.2896 4.20646 16.0415 4.95844C16.7935 5.71042 16.7935 6.93396 16.0415 7.6859L7.28712 16.4403C5.99874 17.7286 3.90255 17.7286 2.6142 16.4403C1.32274 15.1489 1.32286 13.0588 2.6142 11.7675L11.3687 3.01302C13.1978 1.18389 16.1581 1.18413 17.987 3.01302C19.8161 4.84212 19.8159 7.80243 17.987 9.63132L14.0961 13.5222C13.7748 13.8435 13.7748 14.3643 14.0961 14.6856C14.4174 15.0069 14.9382 15.0069 15.2595 14.6856L19.1504 10.7947C21.6165 8.32858 21.6165 4.31577 19.1504 1.84961Z" fill="#5A5A5A"/>
</svg>
