<svg width="16" height="16" viewBox="0 0 16 16" fill="none" xmlns="http://www.w3.org/2000/svg">
<path d="M11.1667 2.37301V1.33301C11.1667 1.05967 10.94 0.833008 10.6667 0.833008C10.3933 0.833008 10.1667 1.05967 10.1667 1.33301V2.33301H5.83332V1.33301C5.83332 1.05967 5.60666 0.833008 5.33332 0.833008C5.05999 0.833008 4.83332 1.05967 4.83332 1.33301V2.37301C3.03332 2.53967 2.15999 3.61301 2.02666 5.20634C2.01332 5.39967 2.17332 5.55967 2.35999 5.55967H13.64C13.8333 5.55967 13.9933 5.39301 13.9733 5.20634C13.84 3.61301 12.9667 2.53967 11.1667 2.37301Z" fill="#D0D5DD"/>
<path d="M13.3333 6.56055H2.66667C2.3 6.56055 2 6.86055 2 7.22721V11.3339C2 13.3339 3 14.6672 5.33333 14.6672H10.6667C13 14.6672 14 13.3339 14 11.3339V7.22721C14 6.86055 13.7 6.56055 13.3333 6.56055ZM6.14 12.1405C6.07333 12.2005 6 12.2472 5.92 12.2805C5.84 12.3139 5.75333 12.3339 5.66667 12.3339C5.58 12.3339 5.49333 12.3139 5.41333 12.2805C5.33333 12.2472 5.26 12.2005 5.19333 12.1405C5.07333 12.0139 5 11.8405 5 11.6672C5 11.4939 5.07333 11.3205 5.19333 11.1939C5.26 11.1339 5.33333 11.0872 5.41333 11.0539C5.57333 10.9872 5.76 10.9872 5.92 11.0539C6 11.0872 6.07333 11.1339 6.14 11.1939C6.26 11.3205 6.33333 11.4939 6.33333 11.6672C6.33333 11.8405 6.26 12.0139 6.14 12.1405ZM6.28 9.58721C6.24667 9.66721 6.2 9.74055 6.14 9.80721C6.07333 9.86721 6 9.91388 5.92 9.94721C5.84 9.98055 5.75333 10.0005 5.66667 10.0005C5.58 10.0005 5.49333 9.98055 5.41333 9.94721C5.33333 9.91388 5.26 9.86721 5.19333 9.80721C5.13333 9.74055 5.08667 9.66721 5.05333 9.58721C5.02 9.50721 5 9.42055 5 9.33388C5 9.24721 5.02 9.16055 5.05333 9.08055C5.08667 9.00055 5.13333 8.92721 5.19333 8.86055C5.26 8.80055 5.33333 8.75388 5.41333 8.72055C5.57333 8.65388 5.76 8.65388 5.92 8.72055C6 8.75388 6.07333 8.80055 6.14 8.86055C6.2 8.92721 6.24667 9.00055 6.28 9.08055C6.31333 9.16055 6.33333 9.24721 6.33333 9.33388C6.33333 9.42055 6.31333 9.50721 6.28 9.58721ZM8.47333 9.80721C8.40667 9.86721 8.33333 9.91388 8.25333 9.94721C8.17333 9.98055 8.08667 10.0005 8 10.0005C7.91333 10.0005 7.82667 9.98055 7.74667 9.94721C7.66667 9.91388 7.59333 9.86721 7.52667 9.80721C7.40667 9.68055 7.33333 9.50721 7.33333 9.33388C7.33333 9.16055 7.40667 8.98721 7.52667 8.86055C7.59333 8.80055 7.66667 8.75388 7.74667 8.72055C7.90667 8.64721 8.09333 8.64721 8.25333 8.72055C8.33333 8.75388 8.40667 8.80055 8.47333 8.86055C8.59333 8.98721 8.66667 9.16055 8.66667 9.33388C8.66667 9.50721 8.59333 9.68055 8.47333 9.80721Z" fill="#D0D5DD"/>
</svg>
