<svg width="18" height="18" viewBox="0 0 18 18" fill="none" xmlns="http://www.w3.org/2000/svg">
<g clip-path="url(#clip0_2587_1300)">
<path fill-rule="evenodd" clip-rule="evenodd" d="M17.6759 15.5952C17.1203 17.2836 14.9435 18.1259 13.3883 17.9855C11.2643 17.7936 8.95313 16.6667 7.19873 15.426C4.61993 13.6019 2.20433 10.7807 0.796729 7.78675C-0.198071 5.67115 -0.421271 3.06955 1.05833 1.14115C1.60553 0.428349 2.19833 0.0479494 3.08633 0.00354935C4.31993 -0.0564507 4.49273 0.649149 4.91633 1.74835C5.23193 2.57035 5.65313 3.40915 5.88833 4.26115C6.32873 5.85115 4.78913 5.91715 4.59473 7.21675C4.47473 8.03635 5.46713 9.13555 5.91593 9.71995C6.78099 10.8581 7.8405 11.8343 9.04553 12.6036C9.72953 13.0344 10.8311 13.8108 11.6135 13.3824C12.8183 12.7224 12.7055 10.6908 14.3891 11.3784C15.2615 11.7336 16.1063 12.246 16.9391 12.6948C18.2267 13.3872 18.1667 14.1048 17.6759 15.5952C18.0431 14.4816 17.3087 16.7087 17.6759 15.5952Z" fill="#095CD7"/>
</g>
<defs>
<clipPath id="clip0_2587_1300">
<rect width="18" height="18" fill="white"/>
</clipPath>
</defs>
</svg>
