<svg width="20" height="20" viewBox="0 0 20 20" fill="none" xmlns="http://www.w3.org/2000/svg">
<path d="M14.1666 2.02539H5.83329C3.33329 2.02539 1.66663 3.69206 1.66663 6.19206V11.1921C1.66663 13.6921 3.33329 15.3587 5.83329 15.3587H9.16663L12.875 17.8254C13.425 18.1921 14.1666 17.8004 14.1666 17.1337V15.3587C16.6666 15.3587 18.3333 13.6921 18.3333 11.1921V6.19206C18.3333 3.69206 16.6666 2.02539 14.1666 2.02539ZM12.9166 9.37539H7.08329C6.74163 9.37539 6.45829 9.09206 6.45829 8.75039C6.45829 8.40872 6.74163 8.12539 7.08329 8.12539H12.9166C13.2583 8.12539 13.5416 8.40872 13.5416 8.75039C13.5416 9.09206 13.2583 9.37539 12.9166 9.37539Z" fill="#6E62FF"/>
</svg>
