<svg width="10" height="10" viewBox="0 0 10 10" fill="none" xmlns="http://www.w3.org/2000/svg">
<path d="M4.99998 0.833984C2.70415 0.833984 0.833313 2.70482 0.833313 5.00065C0.833313 7.29648 2.70415 9.16732 4.99998 9.16732C7.29581 9.16732 9.16665 7.29648 9.16665 5.00065C9.16665 2.70482 7.29581 0.833984 4.99998 0.833984ZM6.81248 6.48815C6.75415 6.58815 6.64998 6.64232 6.54165 6.64232C6.48748 6.64232 6.43331 6.62982 6.38331 6.59648L5.09165 5.82565C4.77081 5.63398 4.53331 5.21315 4.53331 4.84232V3.13398C4.53331 2.96315 4.67498 2.82148 4.84581 2.82148C5.01665 2.82148 5.15831 2.96315 5.15831 3.13398V4.84232C5.15831 4.99232 5.28331 5.21315 5.41248 5.28815L6.70415 6.05898C6.85415 6.14648 6.90415 6.33815 6.81248 6.48815Z" fill="white"/>
</svg>
