<svg width="20" height="20" viewBox="0 0 20 20" fill="none" xmlns="http://www.w3.org/2000/svg">
<path d="M1.66669 6.66667C1.66669 6.66667 5.39765 2.5 10 2.5C14.6024 2.5 18.3334 6.66667 18.3334 6.66667" stroke="#065AD7" stroke-width="1.25" stroke-linecap="round"/>
<path d="M17.9534 10.871C18.2067 11.2262 18.3334 11.4039 18.3334 11.6668C18.3334 11.9297 18.2067 12.1074 17.9534 12.4627C16.8149 14.059 13.9077 17.5002 10 17.5002C6.09234 17.5002 3.1851 14.059 2.04672 12.4627C1.79336 12.1074 1.66669 11.9297 1.66669 11.6668C1.66669 11.4039 1.79336 11.2262 2.04672 10.871C3.1851 9.27466 6.09234 5.8335 10 5.8335C13.9077 5.8335 16.8149 9.27466 17.9534 10.871Z" stroke="#065AD7" stroke-width="1.25"/>
<path d="M12.5 11.6665C12.5 10.2858 11.3807 9.1665 10 9.1665C8.61925 9.1665 7.5 10.2858 7.5 11.6665C7.5 13.0473 8.61925 14.1665 10 14.1665C11.3807 14.1665 12.5 13.0473 12.5 11.6665Z" stroke="#065AD7" stroke-width="1.25"/>
</svg>
