<svg width="10" height="10" viewBox="0 0 10 10" fill="none" xmlns="http://www.w3.org/2000/svg">
<path d="M7.50837 5.13717L7.00004 4.62884C6.87921 4.52467 6.80837 4.37051 6.80421 4.19967C6.79587 4.01217 6.87087 3.82467 7.00837 3.68717L7.50837 3.18717C7.94171 2.75384 8.10421 2.33717 7.96671 2.00801C7.83337 1.68301 7.42087 1.50384 6.81254 1.50384H2.45837V1.14551C2.45837 0.974674 2.31671 0.833008 2.14587 0.833008C1.97504 0.833008 1.83337 0.974674 1.83337 1.14551V8.85384C1.83337 9.02467 1.97504 9.16634 2.14587 9.16634C2.31671 9.16634 2.45837 9.02467 2.45837 8.85384V6.82051H6.81254C7.41254 6.82051 7.81671 6.63717 7.95421 6.30801C8.09171 5.97884 7.93337 5.56634 7.50837 5.13717Z" fill="white"/>
</svg>
