<svg width="10" height="10" viewBox="0 0 10 10" fill="none" xmlns="http://www.w3.org/2000/svg">
<path d="M5.00004 0.833984C2.70421 0.833984 0.833374 2.70482 0.833374 5.00065C0.833374 7.29648 2.70421 9.16732 5.00004 9.16732C7.29587 9.16732 9.16671 7.29648 9.16671 5.00065C9.16671 2.70482 7.29587 0.833984 5.00004 0.833984ZM6.81254 6.48815C6.75421 6.58815 6.65004 6.64232 6.54171 6.64232C6.48754 6.64232 6.43337 6.62982 6.38337 6.59648L5.09171 5.82565C4.77087 5.63398 4.53337 5.21315 4.53337 4.84232V3.13398C4.53337 2.96315 4.67504 2.82148 4.84587 2.82148C5.01671 2.82148 5.15837 2.96315 5.15837 3.13398V4.84232C5.15837 4.99232 5.28337 5.21315 5.41254 5.28815L6.70421 6.05898C6.85421 6.14648 6.90421 6.33815 6.81254 6.48815Z" fill="#D0D5DD"/>
</svg>
