<svg width="20" height="20" viewBox="0 0 20 20" fill="none" xmlns="http://www.w3.org/2000/svg">
<path d="M14 1.66699H11.8333C9.16667 1.66699 7.5 3.33366 7.5 6.00032V9.37532H12.7083C13.05 9.37532 13.3333 9.65866 13.3333 10.0003C13.3333 10.342 13.05 10.6253 12.7083 10.6253H7.5V14.0003C7.5 16.667 9.16667 18.3337 11.8333 18.3337H13.9917C16.6583 18.3337 18.325 16.667 18.325 14.0003V6.00032C18.3333 3.33366 16.6667 1.66699 14 1.66699Z" fill="#FF383C"/>
<path d="M3.79995 9.37454L5.52495 7.64954C5.64995 7.52454 5.70828 7.36621 5.70828 7.20788C5.70828 7.04954 5.64995 6.88288 5.52495 6.76621C5.28328 6.52454 4.88328 6.52454 4.64162 6.76621L1.84995 9.55788C1.60828 9.79954 1.60828 10.1995 1.84995 10.4412L4.64162 13.2329C4.88328 13.4745 5.28328 13.4745 5.52495 13.2329C5.76662 12.9912 5.76662 12.5912 5.52495 12.3495L3.79995 10.6245H7.49995V9.37454H3.79995V9.37454Z" fill="#FF383C"/>
</svg>
