<svg width="20" height="20" viewBox="0 0 20 20" fill="none" xmlns="http://www.w3.org/2000/svg">
<path d="M10 12.4001C9.24167 12.4001 8.625 11.7835 8.625 11.0251V8.96682C8.625 8.20848 9.24167 7.5918 10 7.5918C10.7583 7.5918 11.375 8.20848 11.375 8.96682V11.0251C11.375 11.7835 10.7583 12.4001 10 12.4001Z" stroke="#065AD7" stroke-width="1.5" stroke-linecap="round"/>
<path d="M14.15 11.2252C13.9834 13.3752 12.1834 15.0586 10 15.0586C7.70004 15.0586 5.83337 13.1919 5.83337 10.8919V9.10856C5.83337 6.80856 7.70004 4.94189 10 4.94189C12.1584 4.94189 13.9334 6.58355 14.1417 8.68355" stroke="#065AD7" stroke-width="1.5" stroke-linecap="round"/>
<path d="M12.5 1.6665H14.1667C16.6667 1.6665 18.3333 3.33317 18.3333 5.83317V7.49984" stroke="#065AD7" stroke-width="1.5" stroke-miterlimit="10" stroke-linecap="round" stroke-linejoin="round"/>
<path d="M1.66663 7.49984V5.83317C1.66663 3.33317 3.33329 1.6665 5.83329 1.6665H7.49996" stroke="#065AD7" stroke-width="1.5" stroke-miterlimit="10" stroke-linecap="round" stroke-linejoin="round"/>
<path d="M12.5 18.3333H14.1667C16.6667 18.3333 18.3333 16.6667 18.3333 14.1667V12.5" stroke="#065AD7" stroke-width="1.5" stroke-miterlimit="10" stroke-linecap="round" stroke-linejoin="round"/>
<path d="M1.66663 12.5V14.1667C1.66663 16.6667 3.33329 18.3333 5.83329 18.3333H7.49996" stroke="#065AD7" stroke-width="1.5" stroke-miterlimit="10" stroke-linecap="round" stroke-linejoin="round"/>
</svg>
