<svg width="24" height="24" viewBox="0 0 24 24" fill="none" xmlns="http://www.w3.org/24/svg">
<path d="M5.04834 8.21731C5.16104 10.6401 5.92543 12.8711 7.15286 14.7733L8.98188 12.9443C9.17649 12.7496 9.4754 12.6953 9.72262 12.8021C10.5101 13.1423 11.3621 13.3331 12.25 13.3331C12.6182 13.3331 12.9167 13.6316 12.9167 14V17.5833C12.9167 17.9515 12.6182 18.25 12.25 18.25C6.59129 18.25 2 13.6587 2 8C2 7.63181 2.29848 7.33333 2.66667 7.33333H6.25C6.61819 7.33333 6.91667 7.63181 6.91667 8C6.91667 8.8879 7.10753 9.73993 7.44766 10.5274C7.55447 10.7746 7.5002 11.0735 7.30558 11.2681L5.04834 8.21731ZM17.2027 8.21731C17.3154 10.6401 18.0798 12.8711 19.3072 14.7733L21.1362 12.9443C21.3308 12.7496 21.6297 12.6953 21.8769 12.8021C22.6644 13.1423 23.5164 13.3331 24.4043 13.3331C24.7725 13.3331 25.071 13.6316 25.071 14V17.5833C25.071 17.9515 24.7725 18.25 24.4043 18.25C18.7456 18.25 14.1543 13.6587 14.1543 8C14.1543 7.63181 14.4528 7.33333 14.821 7.33333H18.4043C18.7725 7.33333 19.071 7.63181 19.071 8C19.071 8.8879 19.2619 9.73993 19.602 10.5274C19.7088 10.7746 19.6545 11.0735 19.4599 11.2681L17.2027 8.21731Z" fill="#0A58CA"/>
<path fill-rule="evenodd" clip-rule="evenodd" d="M11.6666 4.91666C11.6666 3.62799 10.6219 2.58332 9.33328 2.58332C8.04461 2.58332 6.99995 3.62799 6.99995 4.91666V5.49999C6.99995 6.78866 8.04461 7.83332 9.33328 7.83332C10.6219 7.83332 11.6666 6.78866 11.6666 5.49999V4.91666ZM5.83328 5.49999V4.91666C5.83328 2.98366 7.40029 1.41666 9.33328 1.41666C11.2663 1.41666 12.8333 2.98366 12.8333 4.91666V5.49999C12.8333 7.43298 11.2663 8.99999 9.33328 8.99999C7.40029 8.99999 5.83328 7.43298 5.83328 5.49999Z" fill="#0A58CA"/>
</svg>
