<svg width="16" height="16" viewBox="0 0 16 16" fill="none" xmlns="http://www.w3.org/2000/svg">
<path fill-rule="evenodd" clip-rule="evenodd" d="M7.64167 0C7.03876 0 6.55 0.488756 6.55 1.09167V6.55H1.09167C0.488756 6.55 0 7.03876 0 7.64167C0 8.24458 0.488756 8.73333 1.09167 8.73333H6.55V14.1917C6.55 14.7946 7.03876 15.2833 7.64167 15.2833C8.24458 15.2833 8.73333 14.7946 8.73333 14.1917V8.73333H14.1917C14.7946 8.73333 15.2833 8.24458 15.2833 7.64167C15.2833 7.03876 14.7946 6.55 14.1917 6.55H8.73333V1.09167C8.73333 0.488756 8.24458 0 7.64167 0Z" fill="white"/>
</svg>
