<svg width="19" height="20" viewBox="0 0 19 20" fill="none" xmlns="http://www.w3.org/2000/svg">
<path fill-rule="evenodd" clip-rule="evenodd" d="M9.14274 0C14.1933 0 18.2855 4.05425 18.2855 9.04C18.2855 11.6133 17.1954 13.9384 15.446 15.5861L18.0442 18.1602C18.4436 18.5558 18.4378 19.1917 18.0313 19.5804C17.6248 19.9692 16.9715 19.9635 16.5722 19.5679L13.7988 16.8203C12.4352 17.6204 10.8433 18.08 9.14274 18.08C4.09221 18.08 0 14.0257 0 9.04C0 4.05425 4.09221 0 9.14274 0ZM9.14274 2.00862C5.24017 2.00862 2.06363 5.15569 2.06363 9.04C2.06363 12.9243 5.24017 16.0714 9.14274 16.0714C13.0453 16.0714 16.2218 12.9243 16.2218 9.04C16.2218 5.15569 13.0453 2.00862 9.14274 2.00862Z" fill="white"/>
</svg>
