<svg width="25" height="25" viewBox="0 0 25 25" fill="none" xmlns="http://www.w3.org/2000/svg">
<path d="M24.7673 0.231117C24.8775 0.341494 24.9529 0.481817 24.984 0.634654C25.0151 0.787491 25.0007 0.946108 24.9424 1.0908L15.6797 24.2497C15.5981 24.4537 15.4618 24.6311 15.2858 24.7626C15.1098 24.8941 14.901 24.9744 14.6822 24.9948C14.4635 25.0152 14.2434 24.9749 14.0462 24.8783C13.8489 24.7816 13.6821 24.6324 13.5642 24.4471L8.50543 16.495L0.554353 11.4357C0.368617 11.3178 0.219041 11.151 0.122129 10.9535C0.0252175 10.756 -0.0152626 10.5356 0.00515572 10.3166C0.0255741 10.0975 0.106097 9.88839 0.23784 9.71224C0.369582 9.53608 0.547422 9.39975 0.751737 9.31828L23.9077 0.0575879C24.0524 -0.000659943 24.211 -0.0151149 24.3638 0.0160186C24.5167 0.0471522 24.657 0.122502 24.7673 0.232709V0.231117ZM22.5 2.5L9.09967 14.9004L8.59967 16.4004H10.0997L22.5 2.5Z" fill="#065AD7"/>
</svg>
