<svg width="19" height="19" viewBox="0 0 19 19" fill="none" xmlns="http://www.w3.org/2000/svg">
<path d="M16.3031 4.75572C15.9871 4.58613 15.3241 4.40884 14.4223 5.04092L13.2891 5.84259C13.2044 3.4453 12.1637 2.50488 9.63539 2.50488H5.01039C2.37414 2.50488 1.34894 3.53009 1.34894 6.16634V12.333C1.34894 14.1059 2.31248 15.9945 5.01039 15.9945H9.63539C12.1637 15.9945 13.2044 15.054 13.2891 12.6568L14.4223 13.4584C14.9002 13.7976 15.3164 13.9055 15.6479 13.9055C15.9331 13.9055 16.1566 13.8207 16.3031 13.7436C16.6191 13.5818 17.151 13.1424 17.151 12.0401V6.45926C17.151 5.35697 16.6191 4.91759 16.3031 4.75572ZM8.47914 8.77176C7.68518 8.77176 7.02998 8.12426 7.02998 7.32259C7.02998 6.52092 7.68518 5.87342 8.47914 5.87342C9.2731 5.87342 9.92831 6.52092 9.92831 7.32259C9.92831 8.12426 9.2731 8.77176 8.47914 8.77176Z" fill="#FAFAFF"/>
</svg>
