<svg width="20" height="20" viewBox="0 0 20 20" fill="none" xmlns="http://www.w3.org/2000/svg">
<path d="M1.66675 11.6663C1.66675 9.32559 1.66675 8.15518 2.22851 7.31444C2.47171 6.95047 2.78421 6.63797 3.14818 6.39477C3.98892 5.83301 5.15931 5.83301 7.50008 5.83301H12.5001C14.8408 5.83301 16.0112 5.83301 16.852 6.39477C17.2159 6.63797 17.5284 6.95047 17.7717 7.31444C18.3334 8.15518 18.3334 9.32559 18.3334 11.6663C18.3334 14.0071 18.3334 15.1775 17.7717 16.0183C17.5284 16.3822 17.2159 16.6947 16.852 16.9379C16.0112 17.4997 14.8408 17.4997 12.5001 17.4997H7.50008C5.15931 17.4997 3.98892 17.4997 3.14818 16.9379C2.78421 16.6947 2.47171 16.3822 2.22851 16.0183C1.66675 15.1775 1.66675 14.0071 1.66675 11.6663Z" stroke="#065AD7" stroke-width="1.25" stroke-linecap="round" stroke-linejoin="round"/>
<path d="M13.3334 5.83333C13.3334 4.26198 13.3334 3.47631 12.8452 2.98816C12.3571 2.5 11.5714 2.5 10.0001 2.5C8.42875 2.5 7.64306 2.5 7.15491 2.98816C6.66675 3.47631 6.66675 4.26198 6.66675 5.83333" stroke="#065AD7" stroke-width="1.25" stroke-linecap="round" stroke-linejoin="round"/>
<path d="M5 9.16699L5.54331 9.33533C8.40425 10.222 11.5957 10.222 14.4567 9.33533L15 9.16699M10 10.0003V11.667" stroke="#065AD7" stroke-width="1.25" stroke-linecap="round" stroke-linejoin="round"/>
</svg>
